<svg xmlns="http://www.w3.org/2000/svg" viewBox="0 0 100 100"><g id="Layer_1" data-name="Layer 1"><polygon points="83.85 19.66 66.69 2.5 66.69 19.66 83.85 19.66"/><path d="M6.5,97.5H67.12a25.66,25.66,0,0,0,5,.5A25.37,25.37,0,0,0,83.85,50.14h0V25.66H60.75V2.5H6.5a4,4,0,0,0-4,4v87A4,4,0,0,0,6.5,97.5ZM88,56.84a22.36,22.36,0,1,1-15.82-6.56A22.22,22.22,0,0,1,88,56.84ZM12.7,18.77H44.94v7.78H12.7Zm0,19.38h61v7.77h-61Zm0,19.37H44.94V65.3H12.7Zm0,19.38H44.94v7.77H12.7Z"/><path d="M69.56,56.67V72.44A2.59,2.59,0,0,0,72.14,75H83.9a2.58,2.58,0,0,0,0-5.16H74.72V56.67a2.58,2.58,0,0,0-5.16,0Z"/></g></svg>