<svg xmlns="http://www.w3.org/2000/svg" viewBox="0 0 100 100"><g id="Layer_1" data-name="Layer 1"><polygon points="80.3 2.5 80.3 19.66 97.46 19.66 80.3 2.5"/><path d="M30.12,97.5H93.46a4,4,0,0,0,4-4V25.66H74.36V2.5H30.12a4,4,0,0,0-4,4v87A4,4,0,0,0,30.12,97.5ZM56,18.77H68.13v7.78H56Zm0,27.07H87.3v7.77H56ZM56,72.9H87.3v7.77H56ZM31.64,16.59a3,3,0,0,1,3-3H46.82a3,3,0,0,1,3,3V28.73a3,3,0,0,1-3,3H34.68a3,3,0,0,1-3-3Zm0,27.13a3,3,0,0,1,3-3H46.82a3,3,0,0,1,3,3V55.86a3,3,0,0,1-3,3H34.68a3,3,0,0,1-3-3Zm0,27.14a3,3,0,0,1,3-3H46.82a3,3,0,0,1,3,3V83a3,3,0,0,1-3,3H34.68a3,3,0,0,1-3-3Z"/><path d="M8,97.5h8A5.49,5.49,0,0,0,21.49,92V74.34c-3-.47-5.37-3.4-5.37-7a6.81,6.81,0,0,1,5.37-7V56.19a1.43,1.43,0,0,0-1.43-1.43H14.38V17.63h.47a1.46,1.46,0,0,0,1.06-.46,1.42,1.42,0,0,0,.37-1.09l-1-12.26A1.43,1.43,0,0,0,13.84,2.5H9.94A1.44,1.44,0,0,0,8.5,3.82l-1,12.26a1.46,1.46,0,0,0,.38,1.09,1.44,1.44,0,0,0,1.06.46h.65V54.76H3.9a1.44,1.44,0,0,0-1.44,1.43v4.25a6.8,6.8,0,0,1,5.37,7c0,3.55-2.33,6.48-5.37,7V92A5.49,5.49,0,0,0,8,97.5Z"/><path d="M37.45,82.71a2,2,0,0,0,1.48.66,2,2,0,0,0,1.48-.66l7.51-8.29a2,2,0,0,0-3-2.69l-6,6.66-2.38-2.64a2,2,0,1,0-3,2.69Z"/><path d="M37.45,55.58a2,2,0,0,0,1.48.66,2,2,0,0,0,1.48-.66l7.51-8.3a2,2,0,0,0-3-2.68l-6,6.65-2.38-2.63a2,2,0,0,0-3,2.68Z"/><path d="M37.45,28.44a2,2,0,0,0,1.48.66,2,2,0,0,0,1.48-.66l7.51-8.29a2,2,0,0,0-3-2.69l-6,6.66-2.38-2.64a2,2,0,1,0-3,2.69Z"/></g></svg>